<svg xmlns="http://www.w3.org/2000/svg" viewBox="0 0 200 120" fill="none">
  <path d="M16,106 C62,86 122,58 186,14" stroke="#7f9d7c" stroke-width="2.5" stroke-linecap="round"/>
  <g fill="#9cbb97">
    <ellipse rx="7" ry="14" transform="translate(40,92) rotate(-22)"/>
    <ellipse rx="7" ry="14" transform="translate(52,99) rotate(58)"/>
    <ellipse rx="7.5" ry="15" transform="translate(72,79) rotate(-26)"/>
    <ellipse rx="7.5" ry="15" transform="translate(86,86) rotate(54)"/>
    <ellipse rx="8" ry="16" transform="translate(108,64) rotate(-28)"/>
    <ellipse rx="8" ry="16" transform="translate(122,71) rotate(52)"/>
    <ellipse rx="7.5" ry="15" transform="translate(146,46) rotate(-30)"/>
    <ellipse rx="7.5" ry="15" transform="translate(160,53) rotate(50)"/>
  </g>
  <g fill="#bdd4b2">
    <ellipse rx="5" ry="10" transform="translate(170,28) rotate(-30)"/>
    <ellipse rx="5" ry="10" transform="translate(181,34) rotate(46)"/>
  </g>
  <g fill="#c9a24b" opacity="0.8">
    <circle cx="60" cy="74" r="2.4"/>
    <circle cx="100" cy="50" r="2.4"/>
    <circle cx="138" cy="34" r="2.4"/>
  </g>
</svg>
